<svg xmlns="http://www.w3.org/2000/svg" width="31.404" height="21.818" viewBox="0 0 31.404 21.818">
  <g id="Group_10684" data-name="Group 10684" transform="translate(0 0)">
    <path id="Path_18667" data-name="Path 18667" d="M28.89,5.58H2.047a1.033,1.033,0,0,0-.995.733A1.059,1.059,0,0,0,1.44,7.485l5.653,3.978a.185.185,0,0,1,.084.157V23.88A3.519,3.519,0,0,0,10.695,27.4h18.2a3.525,3.525,0,0,0,3.518-3.518V9.1A3.525,3.525,0,0,0,28.89,5.58ZM24.86,22.771H14.715a1.047,1.047,0,1,1,0-2.094H24.86a1.047,1.047,0,0,1,0,2.094ZM13.668,16.489a1.05,1.05,0,0,1,1.047-1.047h5.842a1.047,1.047,0,1,1,0,2.094H14.715A1.05,1.05,0,0,1,13.668,16.489ZM24.86,12.3H14.715a1.047,1.047,0,1,1,0-2.094H24.86a1.047,1.047,0,0,1,0,2.094Z" transform="translate(-1.004 -5.58)" fill="#fff"/>
  </g>
</svg>
