<svg xmlns="http://www.w3.org/2000/svg" width="24" height="24" viewBox="0 0 24 24">
  <g id="Group_10763" data-name="Group 10763" transform="translate(-374.522 -574.521)" opacity="0.201">
    <rect id="_Transparent_Rectangle_" data-name="&lt;Transparent Rectangle&gt;" width="24" height="24" transform="translate(374.522 574.521)" fill="none"/>
    <path id="Path_18673" data-name="Path 18673" d="M387.082,578.44a8.641,8.641,0,1,1-8.641,8.641,8.651,8.651,0,0,1,8.641-8.641m0-1.44a10.081,10.081,0,1,0,10.081,10.081A10.081,10.081,0,0,0,387.082,577Z" transform="translate(-0.56 -0.56)"/>
    <path id="Path_18674" data-name="Path 18674" d="M392.937,594.081l-3.9-3.9-3.9,3.9L384,592.936l3.9-3.9-3.9-3.9L385.146,584l3.9,3.9,3.895-3.9,1.145,1.146-3.895,3.9,3.9,3.9Z" transform="translate(-2.519 -2.519)"/>
  </g>
</svg>
