<svg xmlns="http://www.w3.org/2000/svg" width="16.187" height="25" viewBox="0 0 16.187 25">
  <path id="Path_18666" data-name="Path 18666" d="M40.723,17.371A1.17,1.17,0,0,0,39.4,18.7v6.229c0,.236-.225.24-.472.231a.26.26,0,0,1-.253-.258V15.4a1.327,1.327,0,1,0-2.654,0v7.61c0,.2-.162.231-.362.231l-.01,0-.01,0c-.2,0-.362-.031-.362-.231V14.049a1.327,1.327,0,1,0-2.654,0v8.956c0,.246-.244.216-.5.217a.218.218,0,0,1-.221-.217V15.4a1.327,1.327,0,0,0-2.654,0V27.257a.344.344,0,0,0,.277.336c1.14.237,3.462,1.152,4.074,4.685a.332.332,0,0,1-.264.377c-.209.042-.408,0-.443-.209-.694-4.141-3.873-4.21-4.008-4.211a.368.368,0,0,1-.361-.362V24.541a2.39,2.39,0,0,0-2.383-2.387.269.269,0,0,0-.271.267v8.67c0,1.556.583,6.631,8.084,6.631s8.1-3.9,8.1-8.618V18.7A1.17,1.17,0,0,0,40.723,17.371Z" transform="translate(-25.863 -12.722)" fill="#ffc400"/>
</svg>
